 <!DOCTYPE svg PUBLIC "-//W3C//DTD SVG 1.1//EN" "http://www.w3.org/Graphics/SVG/1.1/DTD/svg11.dtd">
<svg id="b7f97151-7a3a-4922-9e45-fcc844c278ce" data-name="Layer 1" xmlns="http://www.w3.org/2000/svg" width="865.76" height="682.89" viewBox="0 0 865.76 682.89">
<defs>
<style xmlns="http://www.w3.org/1999/xhtml">*, ::after, ::before { box-sizing: border-box; }
img, svg { vertical-align: middle; }
</style>
<style xmlns="http://www.w3.org/1999/xhtml">*, body, html { }
img, svg { max-width: 100%; }
</style>
</defs>
<g id="b67967cc-a4b2-4fdf-b3d3-5afe8dbde714" data-name="freepik--background-complete--inject-923">
<path d="M645.29,403.93s-14.92-10.4-21.77-8.52-15.64,11.52-15.64,11.52,17.38-5,22.63-4A96.07,96.07,0,0,0,645.29,403.93Z" fill="#e0e0e0"/>
<path d="M650.31,407.69c-2.18,4.92-5.92,9-8,13.92a23.61,23.61,0,0,0-.11,17.92,32.31,32.31,0,0,0,7.61-15.26,83.22,83.22,0,0,0,1.74-16Z" fill="#e0e0e0"/>
<path d="M648,406.44c.68-2-16.21-1.13-21.65,5.38s-10.83,13.59-6.19,30c0,0,10.19-17.82,10.19-17.55S646.66,410.36,648,406.44Z" fill="#e0e0e0"/>
<path d="M648.15,406.21c-1.55.6,13.78,5.27,20.86,5.84a21.62,21.62,0,0,0,11.36-1.79S670.09,397.69,648.15,406.21Z" fill="#e0e0e0"/>
<path d="M725.66,470.85s7.39-3.09,9.48-.92,10.61,13.39,18.69,14.08c0,0-7.39-15.71-14.08-18.24C735.34,464.1,725.66,470.85,725.66,470.85Z" fill="#e0e0e0"/>
<path d="M727.56,470s-.29-5.55-3.09-8.47-12.83-4.9-12.83-4.9a38.83,38.83,0,0,0,7.36,8.56A41,41,0,0,0,727.56,470Z" fill="#e0e0e0"/>
<path d="M727.56,469.68s-5.15,0-8.78,6.35A53.05,53.05,0,0,0,713.46,490c.31-.54,9.71-4.64,12.19-9.87A21.75,21.75,0,0,0,727.56,469.68Z" fill="#e0e0e0"/>
<path d="M728.72,469.68s.93,12.24,3,14.33,5.09,9.7,5.09,9.7,4.64-11.09,2.07-16.39S728.72,469.68,728.72,469.68Z" fill="#e0e0e0"/>
<path d="M683.85,493.34c-.59.88-12.37,10.06-14.21,14.51s-.29,11.26,0,13.33,10.65-2.67,12.37-10.67A91.68,91.68,0,0,0,683.85,493.34Z" fill="#e0e0e0"/>
<path d="M686.17,486.45c0,1.47.17,16,4,21.06A68.2,68.2,0,0,0,701,518s2.51-18.36-2.78-24A28.72,28.72,0,0,0,686.17,486.45Z" fill="#e0e0e0"/>
<path d="M684.42,488.94c-.86-.2-11.58-1.22-16.68,4.89a57,57,0,0,0-8,13s16.21-8,19.18-11.59S684.42,488.94,684.42,488.94Z" fill="#e0e0e0"/>
<path d="M691.8,482.3a8.42,8.42,0,0,1,9.18-.24c4.81,3,12.82,14.66,12.82,14.66s-9.8-.6-14.9-5.55A33.44,33.44,0,0,1,691.8,482.3Z" fill="#e0e0e0"/>
<path d="M684.83,484.1s-6.19-5.28-11-6.46-18.66,2.29-18.66,2.29a24.89,24.89,0,0,0,16.14,4.17C681,483.27,684.83,484.1,684.83,484.1Z" fill="#e0e0e0"/>
<path d="M664.2,537.87s-4.45,8.59,0,13.34S671,565.44,671,565.44s7.73-7.43,3.84-15.71A26.89,26.89,0,0,0,664.2,537.87Z" fill="#e0e0e0"/>
<path d="M657.15,538.08c-1.19.61-8.89,11-9.48,18.37s-1.19,20.1,0,19.27,9.77-8.89,12.14-16.59S657.15,538.08,657.15,538.08Z" fill="#e0e0e0"/>
<path d="M654.16,537.28c-1.17.29-12.37-1.78-18.66,6.18a99.36,99.36,0,0,0-11,19.56s16.3-8.33,20.1-12.91S654.16,537.28,654.16,537.28Z" fill="#e0e0e0"/>
<path d="M717.76,523.05s-3.39,10.09,0,19A87.12,87.12,0,0,0,725,556.84s5-17.78,1.76-22.53S717.76,523.05,717.76,523.05Z" fill="#e0e0e0"/>
<path d="M719.62,522c1.19,1.11,15.09,21.06,24.53,22.83s1.47-.75,1.47-.75-3-13.44-7.2-19S719.62,522,719.62,522Z" fill="#e0e0e0"/>
<path d="M717.45,521.63s10.25-7.11,14.26-8.92,17.27.57,17.27.57-16.07,8.38-19.93,7.58-11.55,2.53-11.55,2.53" fill="#e0e0e0"/>
<path d="M753.14,424.64s-8.88,9.41-7.73,16.77a86.12,86.12,0,0,0,3.8,14.41l3.9-12.94Z" fill="#e0e0e0"/>
<path d="M754.34,422.75s-2.05,14.43,2.06,20.3,9.71,17,10.3,16.19,9.12-8.53,2.95-19.42A55.84,55.84,0,0,0,754.34,422.75Z" fill="#e0e0e0"/>
<path d="M751.36,425.3s-14.19-4.11-16.24,2.66-3.75,12.65-3.75,12.65a55.19,55.19,0,0,1,10-8.27A103.52,103.52,0,0,0,751.36,425.3Z" fill="#e0e0e0"/>
<path d="M687.7,429.12l1.16-1c3.36-2.87,13.14-10.74,18.09-9.53a105.12,105.12,0,0,1,14.32,5.21S699.82,434.93,687.7,429.12Z" fill="#e0e0e0"/>
<path d="M690.58,429.21c0-1.06-6.45-2.78-12.16,3.1s-6.57,9.51-6.57,9.51S690.18,439.37,690.58,429.21Z" fill="#e0e0e0"/>
<path d="M689.62,430.4s-6.53,7.5-1.55,14.86,9.28,14.43,9.28,14.43a23.77,23.77,0,0,0,0-14.64A52.89,52.89,0,0,0,689.62,430.4Z" fill="#e0e0e0"/>
<path d="M714,449.08c-.3-1.79,2.07-16.48-17.37-15h-1.78s9.28,15,11.43,19.72a20.53,20.53,0,0,0,6,8.24C714.54,464.07,714.25,450.88,714,449.08Z" fill="#e0e0e0"/>
<path d="M717.71,522.4a16.86,16.86,0,0,0-4.64-12.54c-.29-.32-.72-.64-1.11-.46a1.09,1.09,0,0,0-.48.7,10.87,10.87,0,0,0,1.08,8.07,27.53,27.53,0,0,0,5.26,6.46" fill="#e0e0e0"/>
<path d="M663,536a33.34,33.34,0,0,0-15.76-14.42,2.22,2.22,0,0,0-1.31-.26,1.69,1.69,0,0,0-1.19,1.55,5.54,5.54,0,0,0,1.54,3.93,27.61,27.61,0,0,0,17.5,10.46" fill="#e0e0e0"/>
<path d="M740.81,514.3a20.07,20.07,0,0,0-2.78.28,31,31,0,0,0-7.33,1.9,42.16,42.16,0,0,0-9.79,5.51,102,102,0,0,0-10.32,9.17c-7.07,6.88-13.3,13.25-17.62,18-2.15,2.4-3.86,4.36-5,5.74l-1.37,1.54c-.31.36-.48.54-.51.53a3.12,3.12,0,0,1,.4-.62c.29-.37.71-.94,1.27-1.64,1.11-1.42,2.76-3.45,4.88-5.89,4.24-4.89,10.42-11.35,17.49-18.21a94,94,0,0,1,10.44-9.2,41.52,41.52,0,0,1,10-5.46A28.35,28.35,0,0,1,738,514.3a17.87,17.87,0,0,1,2.07,0A4.33,4.33,0,0,1,740.81,514.3Z" fill="#e0e0e0"/>
<path d="M685.68,552.76c-.11.07-1.27-1.94-3.79-4.64A32.16,32.16,0,0,0,656,538c-3.68.24-5.89.92-5.92.8a6,6,0,0,1,1.55-.53,27.78,27.78,0,0,1,4.34-.77,30.92,30.92,0,0,1,26.29,10.3,24.81,24.81,0,0,1,2.66,3.54A7,7,0,0,1,685.68,552.76Z" fill="#e0e0e0"/>
<path d="M689.49,429a1.62,1.62,0,0,1,0,.44,6.05,6.05,0,0,1-.1,1.23c-.11,1.13-.27,2.72-.47,4.75-.41,4.11-1,10.08-1.68,17.46-1.3,14.73-2.85,35.16-2.82,57.75s1.66,43,2.8,57.76c.6,7.35,1.08,13.32,1.42,17.49.16,2,.28,3.62.38,4.75a6.26,6.26,0,0,0,.07,1.24,1.55,1.55,0,0,1,0,.43,2,2,0,0,1-.07-.42,4.3,4.3,0,0,0-.14-1.23c-.13-1.13-.3-2.73-.5-4.75-.42-4.11-1-10.08-1.65-17.46-1.27-14.75-2.94-35.18-3.1-57.81a521.67,521.67,0,0,1,3.1-57.8c.72-7.38,1.4-13.33,1.9-17.44.26-2.06.46-3.64.6-4.73l.19-1.24A1.54,1.54,0,0,1,689.49,429Z" fill="#e0e0e0"/>
<path d="M733.81,468.78a10.38,10.38,0,0,1-2.07.33c-1.33.14-3.26.4-5.63.77A104.77,104.77,0,0,0,691,482.25c-2.08,1.17-3.74,2.18-4.88,2.91a10.43,10.43,0,0,1-1.81,1,12.89,12.89,0,0,1,1.67-1.27c1.08-.78,2.72-1.85,4.78-3.09A93.85,93.85,0,0,1,726,469.46c2.4-.31,4.33-.49,5.68-.56A12.27,12.27,0,0,1,733.81,468.78Z" fill="#e0e0e0"/>
<path d="M685.83,462.23a7.55,7.55,0,0,1-.19-.79c-.1-.61-.23-1.36-.4-2.29a31.21,31.21,0,0,0-.71-3.59,44.89,44.89,0,0,0-1.22-4.64c-.28-.85-.56-1.75-.85-2.67s-.71-1.86-1.08-2.85c-.73-2-1.75-4-2.77-6.18a79.43,79.43,0,0,0-8.46-12.85,99.84,99.84,0,0,0-20.73-18.74c-1.44-1.07-2.85-1.87-4-2.68s-2.26-1.4-3.09-1.91l-2-1.24a4.27,4.27,0,0,1-.66-.45,3.25,3.25,0,0,1,.74.32l2,1.1c.9.47,2,1.05,3.19,1.83s2.64,1.54,4.13,2.58a95.34,95.34,0,0,1,21,18.72,77.54,77.54,0,0,1,8.49,13,63.08,63.08,0,0,1,2.74,6.18c.35,1,.79,1.94,1.05,2.89s.56,1.84.82,2.71a48.22,48.22,0,0,1,1.13,4.75,27.61,27.61,0,0,1,.6,3.62c.11.94.2,1.7.26,2.3A2.54,2.54,0,0,1,685.83,462.23Z" fill="#e0e0e0"/>
<path d="M755.36,424a3.82,3.82,0,0,1-.74.34l-2.18.82c-1.9.68-4.64,1.71-8,3.09a237.26,237.26,0,0,0-25.46,12,234.23,234.23,0,0,0-23.78,15.07c-2.94,2.11-5.28,3.85-6.87,5.09l-1.85,1.41a4.54,4.54,0,0,1-.69.45,7.35,7.35,0,0,1,.59-.58l1.78-1.54c1.55-1.3,3.84-3.1,6.74-5.29a204.73,204.73,0,0,1,49.36-27.15c3.37-1.29,6.18-2.26,8.05-2.86l2.23-.7A3.64,3.64,0,0,1,755.36,424Z" fill="#e0e0e0"/>
<polygon points="714.33 658.6 658.51 658.6 652.68 590.41 720.87 590.41 714.33 658.6" fill="#e0e0e0"/>
<rect x="648.37" y="590.41" width="77.03" height="10.48" fill="#e0e0e0"/>
<path d="M724.9,600.92c0,.19-17.24.36-38.47.36s-38.48-.17-38.48-.36,17.22-.35,38.48-.35S724.9,600.72,724.9,600.92Z" fill="#ebebeb"/>
<rect x="100.69" y="24.3" width="204.69" height="338.81" fill="#e0e0e0"/>
<rect x="93.88" y="24.3" width="204.69" height="338.81" fill="#ebebeb"/>
<rect x="102.6" y="31.18" width="187.25" height="325.06" fill="#fafafa"/>
<rect x="138.25" y="73.4" width="115.15" height="240.59" fill="#ebebeb"/>
<path d="M138.25,228.86c-.27-22.46,19.94-44.41,42.19-47.54,10.61-1.55,21.9.6,31.81-3.47,17.7-7.25,23.33-30.77,41.14-37.74L254.2,314h-116Z" fill="#e0e0e0"/>
</g>
<path d="M180.29,569.84l-1.72.48s7.51,29.53-9.79,35.44l-15.71-60.32,20-5.58A38.48,38.48,0,0,0,180.29,569.84Z" fill="#f2b200" data-primary="true"/>
<path d="M153,545.44l4.82-1.33,14.34,60a12.69,12.69,0,0,1-3.45,1.64Z" fill="#2f2e41" data-secondary="true"/>
<path d="M446.07,241a4.09,4.09,0,0,0-.57,4,6.4,6.4,0,0,0,2.54,2.59,22.3,22.3,0,0,0,4.23-6" fill="#f7a48b"/>
<path d="M438.61,238.8a4.13,4.13,0,0,0-1.55,3.73,6.38,6.38,0,0,0,1.82,3.14,22.55,22.55,0,0,0,5.6-4.79" fill="#f7a48b"/>
<polygon points="245.75 522.95 243.49 637.67 271.28 640.64 290.37 523.84 275.37 504.97 245.75 522.95" fill="#f9b499"/>
<path d="M274.68,635v1.88s31.9.28,31.88,19.14l-63.05-1v-21A38.84,38.84,0,0,0,274.68,635Z" fill="#f2b200" data-primary="true"/>
<path d="M243.49,654.94v-5.05l62.76,3a18.2,18.2,0,0,1,.29,3.13Z" fill="#2f2e41" data-secondary="true"/>
<path d="M234.27,172.45c-.47-5.29-3.63-10.64-8.6-12.23l-5.82,3.33a14,14,0,0,0-7,17,16.58,16.58,0,0,0-5.31,22.75c-3.78,1.72-5.4,6.36-5.33,10.52s1.41,8.2,1.72,12.34c.29,3.2,0,6.44.58,9.61a9.81,9.81,0,0,0,5.29,7.57,8.6,8.6,0,0,0,9.15-2.61,17.85,17.85,0,0,0,3.83-9.21c1.56-9.61-.48-19.62,1.94-29.06a94.81,94.81,0,0,1,6.07-14.67C232.93,183,234.71,177.73,234.27,172.45Z" fill="#2f2e41" data-secondary="true"/>
<path d="M231.46,171.76A18.53,18.53,0,0,1,216,143.25a4.78,4.78,0,0,1,2.11-2c1.94-.77,4,.81,5.48,2.28l10.88,10.59" fill="#2f2e41" data-secondary="true"/>
<path d="M231.77,158.19c-8.16-3.87-14.59-13-17-21.74s.36-26.36,2.7-35.07c2.87-10.62,7.29,3,10.9,4.15a7,7,0,0,1,4.29,4.85,20.28,20.28,0,0,1,.5,6.72q-.72,20.63-1.43,41.09" fill="#2f2e41" data-secondary="true"/>
<path d="M252.65,71.61c13.65-7.34,24.61-3,29.94,1.15s8.59,10.52,10.5,17,2.8,13.21,4.38,19.8a80.35,80.35,0,0,1,2.11,11.51c.78,5.62.52,15.67-2.35,20.62a33.65,33.65,0,0,1-10.31,11.89c-1.72,1.08-3.59,2.22-5.47,1.62a6.65,6.65,0,0,1-3.09-2.84,263.24,263.24,0,0,1-34.52-69" fill="#2f2e41" data-secondary="true"/>
<path d="M237.44,87.39l23.65-9.54,6.2.69c13.92,0,23.6,15.29,23.75,26.58.16,12.53-.13,27.84-2.08,37.09-3.91,18.59-18.4,20.26-18.4,20.26s.17,5.07.31,11.3a19.65,19.65,0,0,1-19.17,20.14h-.9a19.64,19.64,0,0,1-19.28-19.6l-.31-80.55A6.59,6.59,0,0,1,237.44,87.39Z" fill="#f9b499"/>
<path d="M270.56,162.47a47.87,47.87,0,0,1-24.76-8s6,13.32,24.88,12.51Z" fill="#f7a48b"/>
<path d="M258.38,75.86c-6-2.43-15.16-1.6-20.3,2.3a26.5,26.5,0,0,0-9.52,16.36c-1.19,6.36.4,15.76,2.06,22,9.69-12.49,19.68-26.89,29-39.64Z" fill="#263238"/>
<path d="M263,70.19c32.85-4.64,29.81,45,29.81,45h0C289.48,96.92,264,77.78,264,77.78l-5.15-.88Z" fill="#2f2e41" data-secondary="true"/>
<path d="M233.25,125.43c0-1.39-1.37-4.76-2.75-5.05-3.66-.75-10.31-.79-10.82,8.59-.74,12.77,12.23,10.86,12.28,10.5S233,130.26,233.25,125.43Z" fill="#ffbe9d"/>
<path d="M230,134.37a4.79,4.79,0,0,1-.62.31,2.32,2.32,0,0,1-1.72,0,5.53,5.53,0,0,1-2.27-5.16,7.32,7.32,0,0,1,.81-3.14,2.62,2.62,0,0,1,1.72-1.62,1.12,1.12,0,0,1,1.27.69c.16.36,0,.62.12.64s.29-.19.22-.73a1.56,1.56,0,0,0-.46-.84,1.71,1.71,0,0,0-1.2-.39,3.12,3.12,0,0,0-2.44,1.85,7.43,7.43,0,0,0-1,3.44c0,2.58,1.11,5.05,2.94,5.69a2.3,2.3,0,0,0,2-.22C229.92,134.68,230.07,134.4,230,134.37Z" fill="#eb996e"/>
<path d="M218.23,94.88a46.06,46.06,0,0,1,17.58-21.29,31.14,31.14,0,0,1,13.75-5.81,15.84,15.84,0,0,1,13.75,4.6l.91.93c-5.64,12.53-9.63,23.13-16.89,34.78-2.69,4.28-3.84,18.91-4.47,23.87-2.2,17.1-11.57,24.42-11.57,24.42C211,156.4,215,103.64,218.23,94.88Z" fill="#2f2e41" data-secondary="true"/>
<path d="M228.2,154.37a5.56,5.56,0,0,1-2.53-.79,17.21,17.21,0,0,1-5.15-3.85,16.54,16.54,0,0,1-3.44-5.43,5.72,5.72,0,0,1-.57-2.58,33.62,33.62,0,0,0,4.57,7.41A32.63,32.63,0,0,0,228.2,154.37Z" opacity="0.2"/>
<path d="M225.71,171a9.8,9.8,0,0,1-8.59-6.48,49.82,49.82,0,0,0,3.88,3.81A47.49,47.49,0,0,0,225.71,171Z" opacity="0.2"/>
<path d="M217.17,186.7c-.19.15-1.36-1.14-2.62-2.87s-2.07-3.27-1.87-3.44,1.36,1.13,2.61,2.87S217.37,186.56,217.17,186.7Z" opacity="0.2"/>
<path d="M210.59,206.05c-.19.15-1.09-.57-2-1.64s-1.52-2-1.34-2.21,1.09.56,2,1.63S210.77,205.87,210.59,206.05Z" opacity="0.2"/>
<path d="M214.45,123.8a18.85,18.85,0,0,1,2.42-1.41,27.24,27.24,0,0,0,2.84-1.72c1.12-.77,2.37-1.35,3.68-2.28A87.85,87.85,0,0,0,250.2,90.72a91,91,0,0,0,5.24-10c.7-1.44,1.18-2.8,1.72-4s.85-2.22,1.15-3.08a16.19,16.19,0,0,1,1-2.61,18.19,18.19,0,0,1-.69,2.73,31.68,31.68,0,0,1-1,3.13c-.43,1.2-.88,2.59-1.55,4.07a81.1,81.1,0,0,1-5.15,10.14,91,91,0,0,1-8.1,11.31,89.73,89.73,0,0,1-9.88,9.81,81,81,0,0,1-9.19,6.65c-1.34.89-2.65,1.56-3.76,2.2s-2.12,1.12-2.94,1.5A17.4,17.4,0,0,1,214.45,123.8Z" opacity="0.2"/>
<path d="M246.09,108.49a10.05,10.05,0,0,1-.93,1.22c-.64.74-1.72,1.72-2.92,3a62.56,62.56,0,0,1-23.58,14,39.85,39.85,0,0,1-4,1.11,5.54,5.54,0,0,1-1.51.24,53,53,0,0,1,5.33-1.94,79.08,79.08,0,0,0,12.3-5.84,78.77,78.77,0,0,0,11.07-8A53.62,53.62,0,0,1,246.09,108.49Z" opacity="0.2"/>
<path d="M293.78,124.82a20.76,20.76,0,0,1,.53-2.81,46.88,46.88,0,0,0,.84-7.66,45.52,45.52,0,0,0-31.48-44.47A25.18,25.18,0,0,1,261,69a4.06,4.06,0,0,1,.74.1c.48.1,1.17.2,2.06.46a40.66,40.66,0,0,1,7.29,2.77,43.92,43.92,0,0,1,24.73,42.07,40.2,40.2,0,0,1-1.14,7.71c-.2.9-.46,1.58-.6,2A2.91,2.91,0,0,1,293.78,124.82Z" opacity="0.2"/>
<path d="M269.13,182.14s56.52,44.48,66.71,45.94,57.86-4.33,77.44-4.93L416,239.56s-54,18.33-73.65,19.05S311.46,254,311.46,254l-36.72-37.61Z" fill="#f9b499"/>
<path d="M412.07,223.32s25.25-3.61,29.22-1.64,15.19,11.48,15.19,11.48,3.76,10.57,1.39,11.07-4.81-3.44-4.81-3.44L449.78,235l-14.11-3.44-23.39,2.08Z" fill="#f9b499"/>
<path d="M446.25,234.38a8,8,0,0,1-4.09-2.06c-2-1.58-3.14-3.44-3-3.44s1.6,1.29,3.44,2.79S446.44,234.14,446.25,234.38Z" fill="#f7a48b"/>
<path d="M220.43,519.18,169.2,542l6.17,27.36s64.41-19.22,85.48-23.48,55.21-9.69,64.85-30.14Z" fill="#f9b499"/>
<path d="M325.52,516.52A7.34,7.34,0,0,1,325,518a17.34,17.34,0,0,1-2.45,3.66,57.22,57.22,0,0,1-12.65,10.07,57.83,57.83,0,0,1-10.14,4.76,112.61,112.61,0,0,1-12.36,3.44c-8.73,2.2-18.32,4.71-28.37,7.37l-51.55,13.6-15.61,4-4.26,1a8.57,8.57,0,0,1-1.51.29,11.88,11.88,0,0,1,1.46-.48l4.23-1.16,15.57-4.27c13.16-3.57,31.32-8.59,51.45-13.85,10-2.66,19.64-5.15,28.4-7.32a116,116,0,0,0,12.29-3.43,59.74,59.74,0,0,0,22.77-14.35A19.42,19.42,0,0,0,325.52,516.52Z" fill="#f7a48b"/>
<path d="M244.15,296.83l1.17,10.09s-17.76,33.53-17.76,51.55-8.18,161.21-8.18,161.21,96.24,5.48,106.39-3.92L336,506.38,370.32,497,316.61,301.09v-10.5Z" fill="#2f2e41" data-secondary="true"/>
<path d="M310,345.36a1.17,1.17,0,0,1,.1.41l.19,1.17c.16,1.1.36,2.61.64,4.52.57,4,1.36,9.68,2.34,16.64,2,14,5,33.39,8.85,54.68S330,463.25,333,477.1c1.53,6.87,2.76,12.44,3.66,16.39l1,4.47c.08.46.17.84.22,1.15a1.41,1.41,0,0,1,0,.41,1.66,1.66,0,0,1-.14-.37l-.31-1.16c-.29-1.08-.67-2.56-1.15-4.41-1-3.85-2.33-9.42-3.93-16.34-3.22-13.75-7.31-33-11.19-54.31s-6.74-40.69-8.59-54.75c-.93-7-1.62-12.73-2.05-16.68-.2-1.91-.36-3.44-.48-4.54a4.22,4.22,0,0,0-.1-1.19A1.15,1.15,0,0,1,310,345.36Z" opacity="0.2"/>
<path d="M240.86,363.3a6,6,0,0,1,.42,1.14c.24.84.56,1.94,1,3.3.86,3,2.06,7.08,3.54,12.13,3,10.22,7.44,24.28,12.8,39.64s10.72,29.11,14.73,39l4.79,11.71,1.29,3.18a8.87,8.87,0,0,1,.39,1.13,4.89,4.89,0,0,1-.56-1.06l-1.45-3.11c-1.23-2.72-3-6.67-5.05-11.6-4.16-9.83-9.59-23.55-15-38.93s-9.68-29.5-12.57-39.78c-1.44-5.16-2.56-9.31-3.28-12.22-.34-1.37-.6-2.47-.81-3.33A8.09,8.09,0,0,1,240.86,363.3Z" opacity="0.2"/>
<path d="M320,305.75a15.62,15.62,0,0,1-2.89.34c-1.86.19-4.55.38-7.9.59-6.67.39-15.92.76-26.11.81s-19.45-.26-26.14-.6c-3.33-.18-6-.35-7.9-.5a16.54,16.54,0,0,1-2.89-.35,23.55,23.55,0,0,1,2.91,0l7.92.23c6.67.19,15.89.37,26.09.34s19.41-.31,26.1-.55l7.9-.29A17.67,17.67,0,0,1,320,305.75Z" opacity="0.2"/>
<path d="M270.68,174.93c-.46-1.09,34.13,26.49,38.48,39.93s5.15,52.21,5.15,52.21L316.73,292l-69.13,4.88L245.74,292l-5.15-13.87-7.06-20.94s-17-26.45-20.42-37.81c-4.19-14.14,2.77-28.63,2.77-28.63l15.62-17.6Z" fill="#f2b200" data-primary="true"/>
<path d="M231.52,174.31s-3.84-7.1-1.48-10.21c1.89-2.46,35.14.63,41.93,2.06,4,.86,0,9.74,0,9.74Z" fill="#f2b200" data-primary="true"/>
<g opacity="0.3">
<path d="M251.43,207.82c2.91,7.51-1.2,30.79-1.82,36.32a95.52,95.52,0,0,1-3.81,16.28c-.76,2.49-1.48,5.34,0,7.53,2.26,3.43,8.11,2.5,10.94,5.6a27.29,27.29,0,0,1-17,2,4.66,4.66,0,0,1-2.7-1.29,4.91,4.91,0,0,1-.82-2.18,64.65,64.65,0,0,1-.81-24.79c1.49-8.16,9.3-27.75,15.86-32.9"/>
</g>
<path d="M272,175.05a5.17,5.17,0,0,1-1.58.44c-1,.23-2.53.48-4.4.74a81.73,81.73,0,0,1-29.2-1.41c-1.84-.43-3.3-.84-4.29-1.17a5.19,5.19,0,0,1-1.53-.6c0-.14,2.28.45,6,1.15a103.5,103.5,0,0,0,14.47,1.72A106.07,106.07,0,0,0,266,175.6C269.65,175.27,271.93,174.91,272,175.05Z" opacity="0.2"/>
<path d="M296.3,241.84c-.15,0,.45-1.91.91-5a37.23,37.23,0,0,0-4.16-23.46c-1.49-2.73-2.69-4.26-2.57-4.36s.39.32,1,1a23.15,23.15,0,0,1,2.16,3.06A33.94,33.94,0,0,1,297.85,237a23.85,23.85,0,0,1-1,3.61A4.11,4.11,0,0,1,296.3,241.84Z" opacity="0.2"/>
<path d="M241.36,192.71a17.17,17.17,0,0,0-24.22,1.93l-.32.37c-.24.31-.48.66-.7,1-3.59,5.38-13.49,89.16-9.54,99.19s9.68,9.33,9.68,9.33,25.91-.29,44.56-4.6,39.42-11.36,39.42-11.36l-3.44-20.3s-45.64,6.05-58.19,4.63h0l4.8-40.8s10.91-13.28,7.78-25.47C249.68,200.82,245.38,196.08,241.36,192.71Z" fill="#f9b499"/>
<path d="M311.18,255.8l10.31-6.88,7.38-6.22a8.34,8.34,0,0,1-1.4,6.55c-2.28,3.44-6.13,8.59-6.13,8.59Z" fill="#f9b499"/>
<path d="M326.46,251.64c-.09,0,.58-.79,1.31-2.27a10,10,0,0,0,.65-6.57l.62.18-7.34,6.27h0l-.55.36-6.46,4.31a59.85,59.85,0,0,1-5.4,3.34,38.11,38.11,0,0,1-5.15,2.68,35.65,35.65,0,0,1,4.86-3.23c1.56-.91,3.32-2.13,5.28-3.44l6.41-4.35.55-.38h0l7.4-6.17.5-.39.12.58a9.92,9.92,0,0,1-1,7,8.58,8.58,0,0,1-1.16,1.6C326.68,251.5,326.49,251.67,326.46,251.64Z" fill="#f7a48b"/>
<path d="M307.47,273.08c.35-.68,27.29-30.71,33.94-38.11a2.87,2.87,0,0,1,3.44-.64h0a2.87,2.87,0,0,1,1.29,3.85,2.76,2.76,0,0,1-.43.64L311.2,277.19Z" fill="#2f2e41" data-secondary="true"/>
<path d="M336.15,260c1.12-1.49-.53-4.43-2.06-5.24s-7.63,2.56-7.63,2.56l-2.2.21s-11.84-2.41-12.23-2.2a37.65,37.65,0,0,0-8.6,5.15,17.16,17.16,0,0,0-3.06,3.73c-.89,1.39-3.11,3.66-8.26,4.9l5,20.4s11-2.6,11.84-2.61,10-.74,11.27-.95a30.57,30.57,0,0,0,10.31-4.76c3.95-2.94,2.11-5.43,2.11-5.43,4.08-2.77.9-5.52.9-5.52l1.15-2c1.72-3.11-1.72-4.82-1.72-4.82A30.44,30.44,0,0,0,336.15,260Z" fill="#f9b499"/>
<path d="M328,266.3c0-.23,1.22-.81,2.68-1.72A13.52,13.52,0,0,1,333.4,263c.18.1-.74,1.36-2.32,2.32S328,266.52,328,266.3Z" fill="#f7a48b"/>
<path d="M331.43,271.85c-.14-.19.27-.78.94-1.31s1.33-.84,1.46-.67-.27.76-.94,1.31S331.58,272,331.43,271.85Z" fill="#f7a48b"/>
<path d="M330.22,276.37c0-.24.66-.49,1.46-.79s1.48-.57,1.62-.4-.4.81-1.32,1.17S330.22,276.59,330.22,276.37Z" fill="#f7a48b"/>
<path d="M326.46,257.31a22.57,22.57,0,0,1-6.22.87,42.45,42.45,0,0,1-6.27.35c0-.28,2.71-1,6.2-1.24A21.73,21.73,0,0,1,326.46,257.31Z" fill="#f7a48b"/>
<path d="M239.2,272.5a30.62,30.62,0,0,1-4.57,5.88,30.62,30.62,0,0,1-5.26,5.29,32.64,32.64,0,0,1,4.59-5.88A31.6,31.6,0,0,1,239.2,272.5Z" fill="#f7a48b"/>
<path d="M250.78,217.1s.12-.91.27-2.55a22.32,22.32,0,0,0-.32-6.87,25.28,25.28,0,0,0-13.94-16.93,16.42,16.42,0,0,0-12-.77,13.46,13.46,0,0,0-7.85,6,22.29,22.29,0,0,0-2.46,6.44,21.48,21.48,0,0,1-.6,2.49v-.67a11.24,11.24,0,0,1,.26-1.89,20.59,20.59,0,0,1,2.06-6.68,13,13,0,0,1,3.16-3.8,15.65,15.65,0,0,1,5-2.68,17.06,17.06,0,0,1,12.71.75,25.34,25.34,0,0,1,14.32,17.53,20.36,20.36,0,0,1,0,7.05,15.17,15.17,0,0,1-.42,1.89A2,2,0,0,1,250.78,217.1Z" fill="#f2b200" data-primary="true"/>
<path d="M250.78,217.1s.12-.91.27-2.55a22.32,22.32,0,0,0-.32-6.87,25.28,25.28,0,0,0-13.94-16.93,16.42,16.42,0,0,0-12-.77,13.46,13.46,0,0,0-7.85,6,22.29,22.29,0,0,0-2.46,6.44,21.48,21.48,0,0,1-.6,2.49v-.67a11.24,11.24,0,0,1,.26-1.89,20.59,20.59,0,0,1,2.06-6.68,13,13,0,0,1,3.16-3.8,15.65,15.65,0,0,1,5-2.68,17.06,17.06,0,0,1,12.71.75,25.34,25.34,0,0,1,14.32,17.53,20.36,20.36,0,0,1,0,7.05,15.17,15.17,0,0,1-.42,1.89A2,2,0,0,1,250.78,217.1Z" opacity="0.2"/>
<rect x="408.46" y="242.57" width="83.41" height="117.34" rx="4.15" fill="#fff"/>
<path d="M487.72,360.4H412.61a4.65,4.65,0,0,1-4.65-4.65v-109a4.65,4.65,0,0,1,4.65-4.65h75.11a4.65,4.65,0,0,1,4.65,4.65v109A4.65,4.65,0,0,1,487.72,360.4ZM412.61,243.07a3.65,3.65,0,0,0-3.65,3.65v109a3.66,3.66,0,0,0,3.65,3.65h75.11a3.66,3.66,0,0,0,3.65-3.65v-109a3.65,3.65,0,0,0-3.65-3.65Z" fill="#2f2e41" data-secondary="true"/>
<path d="M433.2,265.63h-14v-14h14Zm-13-1h12v-12h-12Z" fill="#2f2e41" data-secondary="true"/>
<rect x="419.7" y="275.18" width="45.62" height="1" fill="#2f2e41" data-secondary="true"/>
<rect x="419.7" y="306.42" width="45.62" height="1" fill="#2f2e41" data-secondary="true"/>
<rect x="454.47" y="342.85" width="22.81" height="1" fill="#2f2e41" data-secondary="true"/>
<rect x="419.7" y="285.72" width="63.77" height="1" fill="#2f2e41" data-secondary="true"/>
<rect x="419.7" y="296.27" width="63.77" height="1" fill="#2f2e41" data-secondary="true"/>
<rect x="419.7" y="316.58" width="63.77" height="1" fill="#2f2e41" data-secondary="true"/>
<rect x="419.7" y="327.12" width="63.77" height="1" fill="#2f2e41" data-secondary="true"/>
<path d="M416,239.56c.36.44,9.39,4.79,14,4.67s9.83-3.71,13.75-3.16,12.13,1.18,13.13-.24a3.11,3.11,0,0,0,0-4.33c-1.34-1.27-8-2.53-12.73-3.82a19,19,0,0,1-7.08-3.25l-27.79,3.06-1.58,8.6Z" fill="#f9b499"/>
<path d="M428.06,229.14a5.5,5.5,0,0,1,1.46-.1,21.65,21.65,0,0,1,3.93.48,110.38,110.38,0,0,1,12.41,3.94,38.73,38.73,0,0,0,6.87,1.61,5.78,5.78,0,0,1,3.08,1.19,3.43,3.43,0,0,1,1,2.75,3.09,3.09,0,0,1-1.15,2.11,3.26,3.26,0,0,1-1.72.64c-1,0-1.46-.31-1.44-.35a6.65,6.65,0,0,0,1.41,0,2.69,2.69,0,0,0,2.23-2.46,2.62,2.62,0,0,0-.89-2.13,5.35,5.35,0,0,0-2.7-.94,34.55,34.55,0,0,1-7-1.58c-4.85-1.62-9.06-3.44-12.27-4.16S428.06,229.31,428.06,229.14Z" fill="#f7a48b"/>
<path d="M504.93,651.55H409.78a7.6,7.6,0,0,1-7.64-7l-16-224.11H528.37L512.43,644.45A7.59,7.59,0,0,1,504.93,651.55Z" fill="#d1d3d4"/>
<path d="M429.76,528.53l-1-.12c1.69-14,14.07-24.64,28.81-24.64,14,0,26.05,9.63,28.54,22.9l-1,.18c-2.4-12.79-14-22.08-27.55-22.08C443.35,504.77,431.39,515,429.76,528.53Z" fill="#f2b200" data-primary="true"/>
<path d="M457.58,559.53c-12.86,0-24-7.94-27.75-19.75l.95-.3c3.61,11.39,14.38,19,26.8,19,14.41,0,26.66-10.78,27.89-24.55l1,.09C485.19,548.35,472.5,559.53,457.58,559.53Z" fill="#f2b200" data-primary="true"/>
<polygon points="429.18 533.55 421.89 525.43 422.63 524.76 429.35 532.25 437.92 526.63 438.47 527.47 429.18 533.55" fill="#f2b200" data-primary="true"/>
<polygon points="493.57 538.26 486.85 530.78 478.28 536.4 477.73 535.56 487.02 529.47 494.31 537.6 493.57 538.26" fill="#f2b200" data-primary="true"/>
<path d="M427.86,113.56H344.3c-3.35,0-6,1.73-6.11,3.82V168c0,2.12,2.73,3.85,6.11,3.89h30.78l12,10.64,10.43-10.64h30.35c3.37,0,6.16-1.65,6.21-3.76V117.45c.06-2.11-2.63-3.85-6-3.89Z" fill="#f2b200" data-primary="true"/>
<path d="M427.86,113.56H344.3c-3.35,0-6,1.73-6.11,3.82V168c0,2.12,2.73,3.85,6.11,3.89h30.78l12,10.64,10.43-10.64h30.35c3.37,0,6.16-1.65,6.21-3.76V117.45c.06-2.11-2.63-3.85-6-3.89Z" fill="#fff" opacity="0.55"/>
<line x1="346.44" y1="129.69" x2="386.13" y2="129.69" fill="none" stroke="#fff" stroke-miterlimit="10"/>
<line x1="346.44" y1="141.01" x2="405.19" y2="141.01" fill="none" stroke="#fff" stroke-miterlimit="10"/>
<line x1="346.44" y1="152.32" x2="405.19" y2="152.32" fill="none" stroke="#fff" stroke-miterlimit="10"/>
<path d="M426.81,129.54a7.52,7.52,0,0,1,2.35,5.85,7,7,0,0,1-2.45,5.81,10.1,10.1,0,0,1-6.49,2l-.16,3h-3.78l-.19-6h1.26a13,13,0,0,0,5.68-1c1.31-.66,2-1.92,2-3.78a4.26,4.26,0,0,0-1.16-3.18,4.44,4.44,0,0,0-3.23-1.14,4.56,4.56,0,0,0-3.25,1.11,4,4,0,0,0-1.19,3.09h-4.09a8.05,8.05,0,0,1,1-4.09,7,7,0,0,1,3-2.79,9.71,9.71,0,0,1,4.49-1A8.91,8.91,0,0,1,426.81,129.54Zm-10.68,24.27a2.8,2.8,0,0,1,2-4.78,2.63,2.63,0,0,1,1.95.81,2.84,2.84,0,0,1,0,4,2.62,2.62,0,0,1-1.95.8A2.65,2.65,0,0,1,416.13,153.81Z" fill="#fff"/>
<rect x="374.9" y="396.99" width="167.51" height="33.69" rx="1.23" fill="#bcbec0"/>
</svg>